<svg width="423" height="139" viewBox="0 0 423 139" fill="none" xmlns="http://www.w3.org/2000/svg">
<path d="M116.534 117.356C119.126 118.508 120.422 120.44 120.422 123.152C120.422 125.528 119.678 127.46 118.19 128.948C116.63 130.508 114.494 131.288 111.782 131.288C110.654 131.288 109.478 131.18 108.254 130.964C107.294 130.796 106.334 130.568 105.374 130.28L104.33 129.92V123.44H106.094C106.502 123.44 106.742 123.644 106.814 124.052C106.862 124.244 106.922 124.832 106.994 125.816L107.102 127.4C108.974 128.072 110.438 128.408 111.494 128.408C112.55 128.408 113.438 128.288 114.158 128.048C114.854 127.832 115.406 127.508 115.814 127.076C116.726 126.236 117.182 125.096 117.182 123.656C117.182 122.264 116.534 121.208 115.238 120.488C114.662 120.128 114.014 119.84 113.294 119.624C110.726 118.832 109.214 118.328 108.758 118.112C108.062 117.8 107.402 117.368 106.778 116.816C105.506 115.688 104.87 114.08 104.87 111.992C104.87 110.096 105.554 108.464 106.922 107.096C108.41 105.656 110.33 104.936 112.682 104.936C115.178 104.936 117.59 105.416 119.918 106.376V112.316H118.19C117.758 112.316 117.506 112.112 117.434 111.704C117.434 111.632 117.41 111.392 117.362 110.984C117.338 110.552 117.278 109.724 117.182 108.5C115.502 108.044 114.086 107.816 112.934 107.816C111.374 107.816 110.174 108.2 109.334 108.968C108.518 109.712 108.11 110.672 108.11 111.848C108.11 113.12 108.758 114.116 110.054 114.836C110.582 115.172 111.254 115.472 112.07 115.736C114.23 116.456 115.742 116.996 116.606 117.356H116.534ZM130.533 112.496C131.589 112.496 132.585 112.676 133.521 113.036C134.481 113.396 135.273 113.912 135.897 114.584C136.617 115.352 137.145 116.204 137.481 117.14C137.865 118.22 138.057 119.372 138.057 120.596C138.057 121.148 138.009 121.484 137.913 121.604C137.793 121.772 137.577 121.856 137.265 121.856H125.169C125.169 123.008 125.313 124.016 125.601 124.88C125.841 125.624 126.249 126.32 126.825 126.968C127.353 127.568 127.953 128 128.625 128.264C129.345 128.552 130.113 128.696 130.929 128.696C131.793 128.696 132.489 128.612 133.017 128.444C133.521 128.276 134.025 128.072 134.529 127.832C135.057 127.568 135.417 127.376 135.609 127.256C135.921 127.064 136.161 126.968 136.329 126.968C136.593 126.968 136.797 127.076 136.941 127.292L137.841 128.48C137.505 128.912 137.025 129.32 136.401 129.704C135.681 130.16 135.093 130.46 134.637 130.604C133.917 130.844 133.269 131.012 132.693 131.108C131.973 131.228 131.313 131.288 130.713 131.288C129.465 131.288 128.301 131.072 127.221 130.64C126.189 130.232 125.265 129.596 124.449 128.732C123.681 127.94 123.081 126.92 122.649 125.672C122.217 124.448 122.001 123.056 122.001 121.496C122.001 120.248 122.205 119.072 122.613 117.968C123.021 116.84 123.585 115.88 124.305 115.088C125.049 114.272 125.949 113.636 127.005 113.18C128.061 112.724 129.237 112.496 130.533 112.496ZM130.605 114.836C129.045 114.836 127.833 115.28 126.969 116.168C126.081 117.104 125.529 118.352 125.313 119.912H135.213C135.213 119.168 135.105 118.496 134.889 117.896C134.625 117.152 134.337 116.612 134.025 116.276C133.617 115.844 133.125 115.496 132.549 115.232C131.997 114.992 131.337 114.872 130.569 114.872L130.605 114.836ZM155.992 128.696C156.16 128.72 156.292 128.804 156.388 128.948C156.484 129.068 156.532 129.212 156.532 129.38V130.928H152.788C152.572 130.928 152.32 130.88 152.032 130.784C151.864 130.736 151.744 130.544 151.672 130.208L151.312 128.48L149.872 129.668C149.464 130.004 148.984 130.292 148.432 130.532C147.904 130.772 147.376 130.952 146.848 131.072C146.368 131.192 145.72 131.252 144.904 131.252C144.232 131.252 143.584 131.144 142.96 130.928C142.216 130.664 141.676 130.376 141.34 130.064C140.908 129.68 140.548 129.176 140.26 128.552C139.996 128 139.864 127.28 139.864 126.392C139.864 125.624 140.056 124.928 140.44 124.304C140.872 123.608 141.52 123.008 142.384 122.504C143.344 121.952 144.496 121.52 145.84 121.208C147.232 120.896 148.984 120.74 151.096 120.74V119.336C151.096 117.92 150.784 116.84 150.16 116.096C149.536 115.352 148.636 114.98 147.46 114.98C146.692 114.98 146.032 115.088 145.48 115.304C144.856 115.544 144.4 115.76 144.112 115.952C143.968 116.048 143.8 116.156 143.608 116.276C143.44 116.372 143.26 116.48 143.068 116.6C142.804 116.792 142.528 116.888 142.24 116.888C141.976 116.888 141.784 116.84 141.664 116.744C141.52 116.624 141.4 116.48 141.304 116.312L140.728 115.304C141.664 114.392 142.744 113.672 143.968 113.144C145.072 112.664 146.368 112.424 147.856 112.424C148.936 112.424 149.848 112.592 150.592 112.928C151.408 113.288 152.068 113.744 152.572 114.296C153.1 114.848 153.508 115.568 153.796 116.456C154.06 117.248 154.192 118.184 154.192 119.264V128.372C155.344 128.612 155.944 128.744 155.992 128.768V128.696ZM151.024 122.792C149.464 122.792 148.216 122.876 147.28 123.044C146.368 123.212 145.528 123.464 144.76 123.8C144.088 124.112 143.608 124.472 143.32 124.88C143.032 125.312 142.888 125.768 142.888 126.248C142.888 126.632 142.972 127.04 143.14 127.472C143.284 127.832 143.5 128.12 143.788 128.336C144.076 128.552 144.388 128.708 144.724 128.804C145.132 128.924 145.528 128.984 145.912 128.984C146.392 128.984 146.896 128.924 147.424 128.804C147.904 128.684 148.348 128.528 148.756 128.336C149.116 128.168 149.512 127.904 149.944 127.544C150.184 127.352 150.544 127.016 151.024 126.536V122.792ZM164.333 116.492C165.677 113.78 167.525 112.424 169.877 112.424C170.813 112.424 171.641 112.64 172.361 113.072L171.965 115.484C171.893 115.796 171.737 115.952 171.497 115.952C171.329 115.952 171.041 115.892 170.633 115.772C170.225 115.652 169.733 115.592 169.157 115.592C167.045 115.592 165.485 116.864 164.477 119.408V128.408L166.529 128.804C166.889 128.876 167.069 129.104 167.069 129.488V131H158.681V129.488C158.681 129.104 158.861 128.876 159.221 128.804L161.273 128.408V115.412C160.121 115.196 159.437 115.052 159.221 114.98C158.861 114.908 158.681 114.68 158.681 114.296V112.784H163.109C163.445 112.784 163.673 112.844 163.793 112.964C163.913 113.084 164.009 113.312 164.081 113.648L164.297 116.492H164.333ZM188.056 128.444C186.544 130.316 184.288 131.252 181.288 131.252C178.984 131.252 177.088 130.424 175.6 128.768C174.04 127.016 173.26 124.712 173.26 121.856C173.26 119.072 173.992 116.828 175.456 115.124C176.992 113.372 179.128 112.496 181.864 112.496C183.232 112.496 185.032 112.928 187.264 113.792V118.544H185.824C185.488 118.544 185.284 118.376 185.212 118.04C185.188 117.968 185.14 117.512 185.068 116.672L184.96 115.484C184.696 115.388 184.432 115.316 184.168 115.268C183.928 115.22 183.76 115.184 183.664 115.16C183.016 115.064 182.344 115.016 181.648 115.016C181.024 115.016 180.364 115.172 179.668 115.484C179.02 115.772 178.456 116.216 177.976 116.816C177.064 118.016 176.608 119.696 176.608 121.856C176.608 124.016 177.088 125.72 178.048 126.968C178.984 128.168 180.268 128.768 181.9 128.768C183.412 128.768 184.744 128.264 185.896 127.256C186.088 127.064 186.328 126.968 186.616 126.968C186.88 126.968 187.072 127.064 187.192 127.256L188.056 128.444ZM195.872 115.232C197.624 113.408 199.568 112.496 201.704 112.496C203.648 112.496 205.16 113.12 206.24 114.368C207.296 115.616 207.824 117.296 207.824 119.408V128.372C208.976 128.588 209.66 128.732 209.876 128.804C210.236 128.876 210.416 129.104 210.416 129.488V131H204.62V119.408C204.62 116.504 203.336 115.052 200.768 115.052C199.016 115.052 197.384 115.904 195.872 117.608V128.408L196.304 128.48L197.888 128.804C198.272 128.876 198.464 129.104 198.464 129.488V131H190.04V129.488C190.04 129.104 190.232 128.876 190.616 128.804L192.632 128.408V107.132C191.264 106.916 190.472 106.772 190.256 106.7C189.872 106.628 189.68 106.4 189.68 106.016V104.504H195.872V115.232ZM234.243 105.728C237.795 106.88 239.571 109.376 239.571 113.216C239.571 115.688 238.755 117.632 237.123 119.048C235.371 120.584 232.995 121.352 229.995 121.352H226.323V128.372C226.515 128.444 227.211 128.588 228.411 128.804C228.747 128.876 228.915 129.104 228.915 129.488V131H220.275V129.488C220.275 129.104 220.455 128.876 220.815 128.804L222.867 128.408V107.852C221.715 107.636 221.031 107.492 220.815 107.42C220.455 107.348 220.275 107.12 220.275 106.736V105.224H229.995C231.603 105.224 233.019 105.404 234.243 105.764V105.728ZM236.079 113.144C236.079 111.536 235.575 110.264 234.567 109.328C233.583 108.416 232.059 107.96 229.995 107.96H226.323V118.544H229.995C231.939 118.544 233.439 118.064 234.495 117.104C235.575 116.12 236.115 114.812 236.115 113.18L236.079 113.144ZM249.32 128.768C249.704 128.84 249.896 129.068 249.896 129.452V131H241.472V129.452C241.472 129.068 241.664 128.84 242.048 128.768L244.064 128.372V107.096C242.96 106.88 242.288 106.736 242.048 106.664C241.664 106.592 241.472 106.376 241.472 106.016V104.468H247.304V128.336C248.408 128.552 249.08 128.696 249.32 128.768ZM267.754 128.696C267.922 128.72 268.054 128.804 268.15 128.948C268.246 129.068 268.294 129.212 268.294 129.38V130.928H264.55C264.334 130.928 264.082 130.88 263.794 130.784C263.626 130.736 263.506 130.544 263.434 130.208L263.074 128.48L261.634 129.668C261.226 130.004 260.746 130.292 260.194 130.532C259.666 130.772 259.138 130.952 258.61 131.072C258.13 131.192 257.482 131.252 256.666 131.252C255.994 131.252 255.346 131.144 254.722 130.928C253.978 130.664 253.438 130.376 253.102 130.064C252.67 129.68 252.31 129.176 252.022 128.552C251.758 128 251.626 127.28 251.626 126.392C251.626 125.624 251.818 124.928 252.202 124.304C252.634 123.608 253.282 123.008 254.146 122.504C255.106 121.952 256.258 121.52 257.602 121.208C258.994 120.896 260.746 120.74 262.858 120.74V119.336C262.858 117.92 262.546 116.84 261.922 116.096C261.298 115.352 260.398 114.98 259.222 114.98C258.454 114.98 257.794 115.088 257.242 115.304C256.618 115.544 256.162 115.76 255.874 115.952C255.73 116.048 255.562 116.156 255.37 116.276C255.202 116.372 255.022 116.48 254.83 116.6C254.566 116.792 254.29 116.888 254.002 116.888C253.738 116.888 253.546 116.84 253.426 116.744C253.282 116.624 253.162 116.48 253.066 116.312L252.49 115.304C253.426 114.392 254.506 113.672 255.73 113.144C256.834 112.664 258.13 112.424 259.618 112.424C260.698 112.424 261.61 112.592 262.354 112.928C263.17 113.288 263.83 113.744 264.334 114.296C264.862 114.848 265.27 115.568 265.558 116.456C265.822 117.248 265.954 118.184 265.954 119.264V128.372C267.106 128.612 267.706 128.744 267.754 128.768V128.696ZM262.786 122.792C261.226 122.792 259.978 122.876 259.042 123.044C258.13 123.212 257.29 123.464 256.522 123.8C255.85 124.112 255.37 124.472 255.082 124.88C254.794 125.312 254.65 125.768 254.65 126.248C254.65 126.632 254.734 127.04 254.902 127.472C255.046 127.832 255.262 128.12 255.55 128.336C255.838 128.552 256.15 128.708 256.486 128.804C256.894 128.924 257.29 128.984 257.674 128.984C258.154 128.984 258.658 128.924 259.186 128.804C259.666 128.684 260.11 128.528 260.518 128.336C260.878 128.168 261.274 127.904 261.706 127.544C261.946 127.352 262.306 127.016 262.786 126.536V122.792ZM284.771 128.444C283.259 130.316 281.003 131.252 278.003 131.252C275.699 131.252 273.803 130.424 272.315 128.768C270.755 127.016 269.975 124.712 269.975 121.856C269.975 119.072 270.707 116.828 272.171 115.124C273.707 113.372 275.843 112.496 278.579 112.496C279.947 112.496 281.747 112.928 283.979 113.792V118.544H282.539C282.203 118.544 281.999 118.376 281.927 118.04C281.903 117.968 281.855 117.512 281.783 116.672L281.675 115.484C281.411 115.388 281.147 115.316 280.883 115.268C280.643 115.22 280.475 115.184 280.379 115.16C279.731 115.064 279.059 115.016 278.363 115.016C277.739 115.016 277.079 115.172 276.383 115.484C275.735 115.772 275.171 116.216 274.691 116.816C273.779 118.016 273.323 119.696 273.323 121.856C273.323 124.016 273.803 125.72 274.763 126.968C275.699 128.168 276.983 128.768 278.615 128.768C280.127 128.768 281.459 128.264 282.611 127.256C282.803 127.064 283.043 126.968 283.331 126.968C283.595 126.968 283.787 127.064 283.907 127.256L284.771 128.444ZM295.697 112.496C296.753 112.496 297.749 112.676 298.685 113.036C299.645 113.396 300.437 113.912 301.061 114.584C301.781 115.352 302.309 116.204 302.645 117.14C303.029 118.22 303.221 119.372 303.221 120.596C303.221 121.148 303.173 121.484 303.077 121.604C302.957 121.772 302.741 121.856 302.429 121.856H290.333C290.333 123.008 290.477 124.016 290.765 124.88C291.005 125.624 291.413 126.32 291.989 126.968C292.517 127.568 293.117 128 293.789 128.264C294.509 128.552 295.277 128.696 296.093 128.696C296.957 128.696 297.653 128.612 298.181 128.444C298.685 128.276 299.189 128.072 299.693 127.832C300.221 127.568 300.581 127.376 300.773 127.256C301.085 127.064 301.325 126.968 301.493 126.968C301.757 126.968 301.961 127.076 302.105 127.292L303.005 128.48C302.669 128.912 302.189 129.32 301.565 129.704C300.845 130.16 300.257 130.46 299.801 130.604C299.081 130.844 298.433 131.012 297.857 131.108C297.137 131.228 296.477 131.288 295.877 131.288C294.629 131.288 293.465 131.072 292.385 130.64C291.353 130.232 290.429 129.596 289.613 128.732C288.845 127.94 288.245 126.92 287.813 125.672C287.381 124.448 287.165 123.056 287.165 121.496C287.165 120.248 287.369 119.072 287.777 117.968C288.185 116.84 288.749 115.88 289.469 115.088C290.213 114.272 291.113 113.636 292.169 113.18C293.225 112.724 294.401 112.496 295.697 112.496ZM295.769 114.836C294.209 114.836 292.997 115.28 292.133 116.168C291.245 117.104 290.693 118.352 290.477 119.912H300.377C300.377 119.168 300.269 118.496 300.053 117.896C299.789 117.152 299.501 116.612 299.189 116.276C298.781 115.844 298.289 115.496 297.713 115.232C297.161 114.992 296.501 114.872 295.733 114.872L295.769 114.836ZM312.48 112.496C313.728 112.496 315.312 112.82 317.232 113.468V118.148H315.828C315.492 118.148 315.288 117.98 315.216 117.644L315 115.268C313.872 115.004 312.936 114.872 312.192 114.872H312.156C311.172 114.872 310.344 115.136 309.672 115.664C309.024 116.168 308.7 116.72 308.7 117.32C308.7 117.944 308.844 118.4 309.132 118.688C309.612 119.24 310.308 119.66 311.22 119.948L312.3 120.272C312.492 120.32 312.876 120.44 313.452 120.632L315.18 121.28C315.66 121.448 316.164 121.76 316.692 122.216C317.676 122.984 318.168 124.04 318.168 125.384C318.168 127.136 317.58 128.528 316.404 129.56C315.132 130.688 313.524 131.252 311.58 131.252C309.588 131.252 307.62 130.928 305.676 130.28V125.528H306.972C307.26 125.528 307.44 125.672 307.512 125.96L307.728 128.264C308.688 128.744 309.924 128.984 311.436 128.984C312.588 128.984 313.524 128.684 314.244 128.084C314.868 127.532 315.18 126.92 315.18 126.248C315.18 125.552 315.036 125.048 314.748 124.736C314.412 124.352 314.052 124.064 313.668 123.872C313.14 123.608 312.636 123.416 312.156 123.296C310.38 122.72 309.264 122.336 308.808 122.144C308.232 121.88 307.692 121.544 307.188 121.136C306.18 120.296 305.676 119.168 305.676 117.752C305.676 116.312 306.252 115.088 307.404 114.08C308.604 113.024 310.296 112.496 312.48 112.496Z" fill="white"/>
<rect x="163" width="96" height="96" rx="48" fill="#333333"/>
<g clip-path="url(#clip0_1_172)">
<path d="M242.13 71.3321L229.666 58.8708C229.104 58.3084 228.341 57.9959 227.541 57.9959H225.503C228.954 53.5838 231.004 48.0344 231.004 41.9975C231.004 27.6364 219.365 16 205.002 16C190.638 16 179 27.6364 179 41.9975C179 56.3586 190.638 67.9949 205.002 67.9949C211.04 67.9949 216.59 65.9451 221.003 62.4955V64.5328C221.003 65.3327 221.316 66.0951 221.878 66.6576L234.342 79.1188C235.517 80.2937 237.417 80.2937 238.579 79.1188L242.117 75.5817C243.292 74.4068 243.292 72.507 242.13 71.3321ZM205.002 57.9959C196.164 57.9959 189.001 50.8466 189.001 41.9975C189.001 33.1608 196.151 25.999 205.002 25.999C213.84 25.999 221.003 33.1483 221.003 41.9975C221.003 50.8341 213.853 57.9959 205.002 57.9959Z" fill="#5373FD"/>
</g>
<defs>
<clipPath id="clip0_1_172">
<rect width="64" height="64" fill="white" transform="translate(179 16)"/>
</clipPath>
</defs>
</svg>
