<svg width="424" height="139" viewBox="0 0 424 139" fill="none" xmlns="http://www.w3.org/2000/svg">
<path d="M124.443 117.356C127.035 118.508 128.331 120.44 128.331 123.152C128.331 125.528 127.587 127.46 126.099 128.948C124.539 130.508 122.403 131.288 119.691 131.288C118.563 131.288 117.387 131.18 116.163 130.964C115.203 130.796 114.243 130.568 113.283 130.28L112.239 129.92V123.44H114.003C114.411 123.44 114.651 123.644 114.723 124.052C114.771 124.244 114.831 124.832 114.903 125.816L115.011 127.4C116.883 128.072 118.347 128.408 119.403 128.408C120.459 128.408 121.347 128.288 122.067 128.048C122.763 127.832 123.315 127.508 123.723 127.076C124.635 126.236 125.091 125.096 125.091 123.656C125.091 122.264 124.443 121.208 123.147 120.488C122.571 120.128 121.923 119.84 121.203 119.624C118.635 118.832 117.123 118.328 116.667 118.112C115.971 117.8 115.311 117.368 114.687 116.816C113.415 115.688 112.779 114.08 112.779 111.992C112.779 110.096 113.463 108.464 114.831 107.096C116.319 105.656 118.239 104.936 120.591 104.936C123.087 104.936 125.499 105.416 127.827 106.376V112.316H126.099C125.667 112.316 125.415 112.112 125.343 111.704C125.343 111.632 125.319 111.392 125.271 110.984C125.247 110.552 125.187 109.724 125.091 108.5C123.411 108.044 121.995 107.816 120.843 107.816C119.283 107.816 118.083 108.2 117.243 108.968C116.427 109.712 116.019 110.672 116.019 111.848C116.019 113.12 116.667 114.116 117.963 114.836C118.491 115.172 119.163 115.472 119.979 115.736C122.139 116.456 123.651 116.996 124.515 117.356H124.443ZM138.441 112.496C139.497 112.496 140.493 112.676 141.429 113.036C142.389 113.396 143.181 113.912 143.805 114.584C144.525 115.352 145.053 116.204 145.389 117.14C145.773 118.22 145.965 119.372 145.965 120.596C145.965 121.148 145.917 121.484 145.821 121.604C145.701 121.772 145.485 121.856 145.173 121.856H133.077C133.077 123.008 133.221 124.016 133.509 124.88C133.749 125.624 134.157 126.32 134.733 126.968C135.261 127.568 135.861 128 136.533 128.264C137.253 128.552 138.021 128.696 138.837 128.696C139.701 128.696 140.397 128.612 140.925 128.444C141.429 128.276 141.933 128.072 142.437 127.832C142.965 127.568 143.325 127.376 143.517 127.256C143.829 127.064 144.069 126.968 144.237 126.968C144.501 126.968 144.705 127.076 144.849 127.292L145.749 128.48C145.413 128.912 144.933 129.32 144.309 129.704C143.589 130.16 143.001 130.46 142.545 130.604C141.825 130.844 141.177 131.012 140.601 131.108C139.881 131.228 139.221 131.288 138.621 131.288C137.373 131.288 136.209 131.072 135.129 130.64C134.097 130.232 133.173 129.596 132.357 128.732C131.589 127.94 130.989 126.92 130.557 125.672C130.125 124.448 129.909 123.056 129.909 121.496C129.909 120.248 130.113 119.072 130.521 117.968C130.929 116.84 131.493 115.88 132.213 115.088C132.957 114.272 133.857 113.636 134.913 113.18C135.969 112.724 137.145 112.496 138.441 112.496ZM138.513 114.836C136.953 114.836 135.741 115.28 134.877 116.168C133.989 117.104 133.437 118.352 133.221 119.912H143.121C143.121 119.168 143.013 118.496 142.797 117.896C142.533 117.152 142.245 116.612 141.933 116.276C141.525 115.844 141.033 115.496 140.457 115.232C139.905 114.992 139.245 114.872 138.477 114.872L138.513 114.836ZM155.908 128.768C156.292 128.84 156.484 129.068 156.484 129.452V131H148.06V129.452C148.06 129.068 148.252 128.84 148.636 128.768L150.652 128.372V107.096C149.548 106.88 148.876 106.736 148.636 106.664C148.252 106.592 148.06 106.376 148.06 106.016V104.468H153.892V128.336C154.996 128.552 155.668 128.696 155.908 128.768ZM166.602 112.496C167.658 112.496 168.654 112.676 169.59 113.036C170.55 113.396 171.342 113.912 171.966 114.584C172.686 115.352 173.214 116.204 173.55 117.14C173.934 118.22 174.126 119.372 174.126 120.596C174.126 121.148 174.078 121.484 173.982 121.604C173.862 121.772 173.646 121.856 173.334 121.856H161.238C161.238 123.008 161.382 124.016 161.67 124.88C161.91 125.624 162.318 126.32 162.894 126.968C163.422 127.568 164.022 128 164.694 128.264C165.414 128.552 166.182 128.696 166.998 128.696C167.862 128.696 168.558 128.612 169.086 128.444C169.59 128.276 170.094 128.072 170.598 127.832C171.126 127.568 171.486 127.376 171.678 127.256C171.99 127.064 172.23 126.968 172.398 126.968C172.662 126.968 172.866 127.076 173.01 127.292L173.91 128.48C173.574 128.912 173.094 129.32 172.47 129.704C171.75 130.16 171.162 130.46 170.706 130.604C169.986 130.844 169.338 131.012 168.762 131.108C168.042 131.228 167.382 131.288 166.782 131.288C165.534 131.288 164.37 131.072 163.29 130.64C162.258 130.232 161.334 129.596 160.518 128.732C159.75 127.94 159.15 126.92 158.718 125.672C158.286 124.448 158.07 123.056 158.07 121.496C158.07 120.248 158.274 119.072 158.682 117.968C159.09 116.84 159.654 115.88 160.374 115.088C161.118 114.272 162.018 113.636 163.074 113.18C164.13 112.724 165.306 112.496 166.602 112.496ZM166.674 114.836C165.114 114.836 163.902 115.28 163.038 116.168C162.15 117.104 161.598 118.352 161.382 119.912H171.282C171.282 119.168 171.174 118.496 170.958 117.896C170.694 117.152 170.406 116.612 170.094 116.276C169.686 115.844 169.194 115.496 168.618 115.232C168.066 114.992 167.406 114.872 166.638 114.872L166.674 114.836ZM191.57 128.444C190.058 130.316 187.802 131.252 184.802 131.252C182.498 131.252 180.602 130.424 179.114 128.768C177.554 127.016 176.774 124.712 176.774 121.856C176.774 119.072 177.506 116.828 178.97 115.124C180.506 113.372 182.642 112.496 185.378 112.496C186.746 112.496 188.546 112.928 190.778 113.792V118.544H189.338C189.002 118.544 188.798 118.376 188.726 118.04C188.702 117.968 188.654 117.512 188.582 116.672L188.474 115.484C188.21 115.388 187.946 115.316 187.682 115.268C187.442 115.22 187.274 115.184 187.178 115.16C186.53 115.064 185.858 115.016 185.162 115.016C184.538 115.016 183.878 115.172 183.182 115.484C182.534 115.772 181.97 116.216 181.49 116.816C180.578 118.016 180.122 119.696 180.122 121.856C180.122 124.016 180.602 125.72 181.562 126.968C182.498 128.168 183.782 128.768 185.414 128.768C186.926 128.768 188.258 128.264 189.41 127.256C189.602 127.064 189.842 126.968 190.13 126.968C190.394 126.968 190.586 127.064 190.706 127.256L191.57 128.444ZM200.142 131.288C198.75 131.288 197.646 130.88 196.83 130.064C196.062 129.296 195.678 128.144 195.678 126.608V115.448H193.482C193.266 115.448 193.098 115.4 192.978 115.304C192.858 115.208 192.798 115.028 192.798 114.764V113.504L195.786 113.108L196.506 107.456C196.506 107.264 196.578 107.12 196.722 107.024C196.842 106.928 197.01 106.88 197.226 106.88H198.846V113.144H204.066V115.484H198.846V126.428C198.846 127.22 199.026 127.796 199.386 128.156C199.746 128.516 200.238 128.696 200.862 128.696C201.126 128.696 201.426 128.648 201.762 128.552C201.978 128.48 202.194 128.384 202.41 128.264C202.482 128.216 202.554 128.168 202.626 128.12C202.698 128.072 202.77 128.024 202.842 127.976C203.034 127.88 203.154 127.832 203.202 127.832C203.37 127.832 203.514 127.928 203.634 128.12L204.57 129.632C203.922 130.184 203.25 130.592 202.554 130.856C201.762 131.144 200.958 131.288 200.142 131.288ZM228.335 105.728C231.887 106.88 233.663 109.376 233.663 113.216C233.663 115.688 232.847 117.632 231.215 119.048C229.463 120.584 227.087 121.352 224.087 121.352H220.415V128.372C220.607 128.444 221.303 128.588 222.503 128.804C222.839 128.876 223.007 129.104 223.007 129.488V131H214.367V129.488C214.367 129.104 214.547 128.876 214.907 128.804L216.959 128.408V107.852C215.807 107.636 215.123 107.492 214.907 107.42C214.547 107.348 214.367 107.12 214.367 106.736V105.224H224.087C225.695 105.224 227.111 105.404 228.335 105.764V105.728ZM230.171 113.144C230.171 111.536 229.667 110.264 228.659 109.328C227.675 108.416 226.151 107.96 224.087 107.96H220.415V118.544H224.087C226.031 118.544 227.531 118.064 228.587 117.104C229.667 116.12 230.207 114.812 230.207 113.18L230.171 113.144ZM243.412 128.768C243.796 128.84 243.988 129.068 243.988 129.452V131H235.564V129.452C235.564 129.068 235.756 128.84 236.14 128.768L238.156 128.372V107.096C237.052 106.88 236.38 106.736 236.14 106.664C235.756 106.592 235.564 106.376 235.564 106.016V104.468H241.396V128.336C242.5 128.552 243.172 128.696 243.412 128.768ZM261.846 128.696C262.014 128.72 262.146 128.804 262.242 128.948C262.338 129.068 262.386 129.212 262.386 129.38V130.928H258.642C258.426 130.928 258.174 130.88 257.886 130.784C257.718 130.736 257.598 130.544 257.526 130.208L257.166 128.48L255.726 129.668C255.318 130.004 254.838 130.292 254.286 130.532C253.758 130.772 253.23 130.952 252.702 131.072C252.222 131.192 251.574 131.252 250.758 131.252C250.086 131.252 249.438 131.144 248.814 130.928C248.07 130.664 247.53 130.376 247.194 130.064C246.762 129.68 246.402 129.176 246.114 128.552C245.85 128 245.718 127.28 245.718 126.392C245.718 125.624 245.91 124.928 246.294 124.304C246.726 123.608 247.374 123.008 248.238 122.504C249.198 121.952 250.35 121.52 251.694 121.208C253.086 120.896 254.838 120.74 256.95 120.74V119.336C256.95 117.92 256.638 116.84 256.014 116.096C255.39 115.352 254.49 114.98 253.314 114.98C252.546 114.98 251.886 115.088 251.334 115.304C250.71 115.544 250.254 115.76 249.966 115.952C249.822 116.048 249.654 116.156 249.462 116.276C249.294 116.372 249.114 116.48 248.922 116.6C248.658 116.792 248.382 116.888 248.094 116.888C247.83 116.888 247.638 116.84 247.518 116.744C247.374 116.624 247.254 116.48 247.158 116.312L246.582 115.304C247.518 114.392 248.598 113.672 249.822 113.144C250.926 112.664 252.222 112.424 253.71 112.424C254.79 112.424 255.702 112.592 256.446 112.928C257.262 113.288 257.922 113.744 258.426 114.296C258.954 114.848 259.362 115.568 259.65 116.456C259.914 117.248 260.046 118.184 260.046 119.264V128.372C261.198 128.612 261.798 128.744 261.846 128.768V128.696ZM256.878 122.792C255.318 122.792 254.07 122.876 253.134 123.044C252.222 123.212 251.382 123.464 250.614 123.8C249.942 124.112 249.462 124.472 249.174 124.88C248.886 125.312 248.742 125.768 248.742 126.248C248.742 126.632 248.826 127.04 248.994 127.472C249.138 127.832 249.354 128.12 249.642 128.336C249.93 128.552 250.242 128.708 250.578 128.804C250.986 128.924 251.382 128.984 251.766 128.984C252.246 128.984 252.75 128.924 253.278 128.804C253.758 128.684 254.202 128.528 254.61 128.336C254.97 128.168 255.366 127.904 255.798 127.544C256.038 127.352 256.398 127.016 256.878 126.536V122.792ZM278.863 128.444C277.351 130.316 275.095 131.252 272.095 131.252C269.791 131.252 267.895 130.424 266.407 128.768C264.847 127.016 264.067 124.712 264.067 121.856C264.067 119.072 264.799 116.828 266.263 115.124C267.799 113.372 269.935 112.496 272.671 112.496C274.039 112.496 275.839 112.928 278.071 113.792V118.544H276.631C276.295 118.544 276.091 118.376 276.019 118.04C275.995 117.968 275.947 117.512 275.875 116.672L275.767 115.484C275.503 115.388 275.239 115.316 274.975 115.268C274.735 115.22 274.567 115.184 274.471 115.16C273.823 115.064 273.151 115.016 272.455 115.016C271.831 115.016 271.171 115.172 270.475 115.484C269.827 115.772 269.263 116.216 268.783 116.816C267.871 118.016 267.415 119.696 267.415 121.856C267.415 124.016 267.895 125.72 268.855 126.968C269.791 128.168 271.075 128.768 272.707 128.768C274.219 128.768 275.551 128.264 276.703 127.256C276.895 127.064 277.135 126.968 277.423 126.968C277.687 126.968 277.879 127.064 277.999 127.256L278.863 128.444ZM289.789 112.496C290.845 112.496 291.841 112.676 292.777 113.036C293.737 113.396 294.529 113.912 295.153 114.584C295.873 115.352 296.401 116.204 296.737 117.14C297.121 118.22 297.313 119.372 297.313 120.596C297.313 121.148 297.265 121.484 297.169 121.604C297.049 121.772 296.833 121.856 296.521 121.856H284.425C284.425 123.008 284.569 124.016 284.857 124.88C285.097 125.624 285.505 126.32 286.081 126.968C286.609 127.568 287.209 128 287.881 128.264C288.601 128.552 289.369 128.696 290.185 128.696C291.049 128.696 291.745 128.612 292.273 128.444C292.777 128.276 293.281 128.072 293.785 127.832C294.313 127.568 294.673 127.376 294.865 127.256C295.177 127.064 295.417 126.968 295.585 126.968C295.849 126.968 296.053 127.076 296.197 127.292L297.097 128.48C296.761 128.912 296.281 129.32 295.657 129.704C294.937 130.16 294.349 130.46 293.893 130.604C293.173 130.844 292.525 131.012 291.949 131.108C291.229 131.228 290.569 131.288 289.969 131.288C288.721 131.288 287.557 131.072 286.477 130.64C285.445 130.232 284.521 129.596 283.705 128.732C282.937 127.94 282.337 126.92 281.905 125.672C281.473 124.448 281.257 123.056 281.257 121.496C281.257 120.248 281.461 119.072 281.869 117.968C282.277 116.84 282.841 115.88 283.561 115.088C284.305 114.272 285.205 113.636 286.261 113.18C287.317 112.724 288.493 112.496 289.789 112.496ZM289.861 114.836C288.301 114.836 287.089 115.28 286.225 116.168C285.337 117.104 284.785 118.352 284.569 119.912H294.469C294.469 119.168 294.361 118.496 294.145 117.896C293.881 117.152 293.593 116.612 293.281 116.276C292.873 115.844 292.381 115.496 291.805 115.232C291.253 114.992 290.593 114.872 289.825 114.872L289.861 114.836ZM306.572 112.496C307.82 112.496 309.404 112.82 311.324 113.468V118.148H309.92C309.584 118.148 309.38 117.98 309.308 117.644L309.092 115.268C307.964 115.004 307.028 114.872 306.284 114.872H306.248C305.264 114.872 304.436 115.136 303.764 115.664C303.116 116.168 302.792 116.72 302.792 117.32C302.792 117.944 302.936 118.4 303.224 118.688C303.704 119.24 304.4 119.66 305.312 119.948L306.392 120.272C306.584 120.32 306.968 120.44 307.544 120.632L309.272 121.28C309.752 121.448 310.256 121.76 310.784 122.216C311.768 122.984 312.26 124.04 312.26 125.384C312.26 127.136 311.672 128.528 310.496 129.56C309.224 130.688 307.616 131.252 305.672 131.252C303.68 131.252 301.712 130.928 299.768 130.28V125.528H301.064C301.352 125.528 301.532 125.672 301.604 125.96L301.82 128.264C302.78 128.744 304.016 128.984 305.528 128.984C306.68 128.984 307.616 128.684 308.336 128.084C308.96 127.532 309.272 126.92 309.272 126.248C309.272 125.552 309.128 125.048 308.84 124.736C308.504 124.352 308.144 124.064 307.76 123.872C307.232 123.608 306.728 123.416 306.248 123.296C304.472 122.72 303.356 122.336 302.9 122.144C302.324 121.88 301.784 121.544 301.28 121.136C300.272 120.296 299.768 119.168 299.768 117.752C299.768 116.312 300.344 115.088 301.496 114.08C302.696 113.024 304.388 112.496 306.572 112.496Z" fill="white"/>
<rect x="164" width="96" height="96" rx="48" fill="#333333"/>
<path d="M212 17C194.879 17 181 30.8791 181 48C181 65.1209 194.879 79 212 79C229.121 79 243 65.1209 243 48C243 30.8791 229.121 17 212 17ZM212 23C225.816 23 237 34.1814 237 48C237 61.8165 225.819 73 212 73C198.184 73 187 61.8186 187 48C187 34.1835 198.181 23 212 23ZM229.526 39.2834L226.708 36.4436C226.125 35.8555 225.175 35.8516 224.587 36.4351L206.918 53.9621L199.444 46.4275C198.861 45.8394 197.911 45.8355 197.323 46.4189L194.483 49.2359C193.895 49.8192 193.891 50.769 194.475 51.3573L205.822 62.7967C206.406 63.3849 207.355 63.3887 207.944 62.8052L229.517 41.4048C230.105 40.8213 230.109 39.8715 229.526 39.2834Z" fill="#FF6363"/>
</svg>
