<svg width="424" height="139" viewBox="0 0 424 139" fill="none" xmlns="http://www.w3.org/2000/svg">
<path d="M120.254 117.752C124.046 118.496 125.942 120.464 125.942 123.656C125.942 125.984 125.102 127.796 123.422 129.092C121.742 130.364 119.558 131 116.87 131H105.17V129.416C105.17 129.056 105.35 128.84 105.71 128.768L107.762 128.336V107.888L105.71 107.456C105.35 107.384 105.17 107.168 105.17 106.808V105.224H116.006C118.814 105.224 121.022 105.752 122.63 106.808C124.262 107.864 125.078 109.496 125.078 111.704C125.078 113.264 124.682 114.536 123.89 115.52C123.098 116.504 121.886 117.248 120.254 117.752ZM115.862 116.744C117.686 116.744 119.102 116.396 120.11 115.7C121.118 114.98 121.622 113.888 121.622 112.424C121.622 110.864 121.142 109.748 120.182 109.076C119.246 108.38 117.854 108.032 116.006 108.032H111.254V116.744H115.862ZM122.486 123.584C122.486 122.096 121.982 121.004 120.974 120.308C119.99 119.612 118.61 119.264 116.834 119.264H111.254V128.228H116.87C118.766 128.252 120.17 127.868 121.082 127.076C122.018 126.26 122.486 125.096 122.486 123.584ZM136.162 112.496C137.482 112.496 138.682 112.712 139.762 113.144C140.818 113.576 141.742 114.2 142.534 115.016C143.278 115.784 143.854 116.768 144.262 117.968C144.67 119.144 144.874 120.44 144.874 121.856C144.874 123.272 144.67 124.568 144.262 125.744C143.854 126.944 143.278 127.928 142.534 128.696C141.742 129.512 140.818 130.136 139.762 130.568C138.682 131 137.482 131.216 136.162 131.216C134.842 131.216 133.642 131 132.562 130.568C131.506 130.136 130.582 129.512 129.79 128.696C129.07 127.952 128.482 126.968 128.026 125.744C127.642 124.712 127.45 123.416 127.45 121.856C127.45 120.296 127.642 119 128.026 117.968C128.482 116.744 129.07 115.76 129.79 115.016C130.582 114.2 131.506 113.576 132.562 113.144C133.642 112.712 134.842 112.496 136.162 112.496ZM136.162 128.768C138.01 128.768 139.354 128.168 140.194 126.968C141.082 125.72 141.526 124.028 141.526 121.892C141.526 119.756 141.082 118.064 140.194 116.816C139.354 115.616 138.01 115.016 136.162 115.016C135.226 115.016 134.434 115.16 133.786 115.448C133.162 115.736 132.61 116.192 132.13 116.816C131.674 117.44 131.338 118.16 131.122 118.976C130.882 119.936 130.762 120.92 130.762 121.928C130.762 122.888 130.882 123.848 131.122 124.808C131.338 125.624 131.674 126.344 132.13 126.968C132.538 127.52 133.09 127.952 133.786 128.264C134.554 128.6 135.346 128.768 136.162 128.768ZM156.096 112.496C157.416 112.496 158.616 112.712 159.696 113.144C160.752 113.576 161.676 114.2 162.468 115.016C163.212 115.784 163.788 116.768 164.196 117.968C164.604 119.144 164.808 120.44 164.808 121.856C164.808 123.272 164.604 124.568 164.196 125.744C163.788 126.944 163.212 127.928 162.468 128.696C161.676 129.512 160.752 130.136 159.696 130.568C158.616 131 157.416 131.216 156.096 131.216C154.776 131.216 153.576 131 152.496 130.568C151.44 130.136 150.516 129.512 149.724 128.696C149.004 127.952 148.416 126.968 147.96 125.744C147.576 124.712 147.384 123.416 147.384 121.856C147.384 120.296 147.576 119 147.96 117.968C148.416 116.744 149.004 115.76 149.724 115.016C150.516 114.2 151.44 113.576 152.496 113.144C153.576 112.712 154.776 112.496 156.096 112.496ZM156.096 128.768C157.944 128.768 159.288 128.168 160.128 126.968C161.016 125.72 161.46 124.028 161.46 121.892C161.46 119.756 161.016 118.064 160.128 116.816C159.288 115.616 157.944 115.016 156.096 115.016C155.16 115.016 154.368 115.16 153.72 115.448C153.096 115.736 152.544 116.192 152.064 116.816C151.608 117.44 151.272 118.16 151.056 118.976C150.816 119.936 150.696 120.92 150.696 121.928C150.696 122.888 150.816 123.848 151.056 124.808C151.272 125.624 151.608 126.344 152.064 126.968C152.472 127.52 153.024 127.952 153.72 128.264C154.488 128.6 155.28 128.768 156.096 128.768ZM184.871 128.768C185.231 128.84 185.411 129.056 185.411 129.416V131H182.027C181.571 131 181.163 130.784 180.803 130.352L174.827 122.864C174.659 122.624 174.479 122.468 174.287 122.396C174.095 122.324 173.819 122.288 173.459 122.288H172.595V128.372C172.739 128.372 173.159 128.456 173.855 128.624L174.611 128.768C174.995 128.84 175.187 129.068 175.187 129.452V131H166.763V129.452C166.763 129.068 166.943 128.84 167.303 128.768L169.355 128.372V107.096C168.203 106.88 167.519 106.736 167.303 106.664C166.943 106.592 166.763 106.376 166.763 106.016V104.468H172.595V120.056H173.387C173.891 120.056 174.275 119.888 174.539 119.552L178.643 115.16C178.571 115.16 178.499 115.148 178.427 115.124C178.355 115.1 178.283 115.088 178.211 115.088L177.635 114.98C177.251 114.908 177.059 114.68 177.059 114.296V112.784H184.691V114.296C184.691 114.656 184.535 114.872 184.223 114.944L181.991 115.376L177.743 119.912C177.359 120.368 177.011 120.692 176.699 120.884C177.179 121.196 177.539 121.568 177.779 122L182.819 128.408L183.755 128.552C184.379 128.696 184.763 128.768 184.907 128.768H184.871ZM205.318 105.008C206.254 105.008 207.118 105.152 207.91 105.44C208.654 105.704 209.338 106.112 209.962 106.664C210.514 107.144 210.958 107.72 211.294 108.392C211.606 108.992 211.798 109.688 211.87 110.48L209.89 110.876L209.71 110.912C209.614 110.912 209.47 110.864 209.278 110.768C209.158 110.72 209.062 110.576 208.99 110.336C208.918 110.048 208.786 109.712 208.594 109.328C208.45 109.04 208.222 108.74 207.91 108.428C207.646 108.164 207.286 107.936 206.83 107.744C206.374 107.552 205.894 107.456 205.39 107.456C204.742 107.456 204.19 107.552 203.734 107.744C203.278 107.936 202.87 108.212 202.51 108.572C202.15 108.932 201.886 109.328 201.718 109.76C201.526 110.264 201.43 110.768 201.43 111.272C201.43 111.68 201.49 112.088 201.61 112.496C201.73 112.928 201.886 113.312 202.078 113.648C202.246 113.96 202.51 114.356 202.87 114.836C203.158 115.22 203.542 115.652 204.022 116.132L211.438 123.656C211.846 122.912 212.206 122.072 212.518 121.136C212.83 120.2 213.022 119.312 213.094 118.472C213.094 118.28 213.166 118.112 213.31 117.968C213.454 117.824 213.622 117.752 213.814 117.752H215.758C215.758 119.12 215.542 120.476 215.11 121.82C214.654 123.236 214.054 124.484 213.31 125.564L218.71 131.036H215.614C215.254 131.036 214.966 131 214.75 130.928C214.606 130.88 214.366 130.688 214.03 130.352L211.438 127.76C210.262 128.864 208.966 129.728 207.55 130.352C206.134 130.976 204.514 131.288 202.69 131.288C201.73 131.288 200.794 131.132 199.882 130.82C198.946 130.484 198.118 130.016 197.398 129.416C196.678 128.816 196.102 128.072 195.67 127.184C195.238 126.32 195.022 125.312 195.022 124.16C195.022 123.32 195.166 122.528 195.454 121.784C195.766 120.992 196.15 120.296 196.606 119.696C197.086 119.072 197.686 118.496 198.406 117.968C199.078 117.488 199.822 117.056 200.638 116.672C199.966 115.808 199.438 114.908 199.054 113.972C198.694 113.108 198.514 112.208 198.514 111.272C198.514 110.36 198.67 109.52 198.982 108.752C199.27 108.056 199.738 107.384 200.386 106.736C200.938 106.184 201.67 105.74 202.582 105.404C203.422 105.092 204.382 104.936 205.462 104.936L205.318 105.008ZM198.226 123.908C198.226 124.7 198.37 125.384 198.658 125.96C198.946 126.56 199.318 127.064 199.774 127.472C200.182 127.832 200.722 128.144 201.394 128.408C201.97 128.624 202.582 128.732 203.23 128.732C204.55 128.732 205.75 128.48 206.83 127.976C207.91 127.472 208.846 126.824 209.638 126.032L202.042 118.364C200.794 119.012 199.834 119.828 199.162 120.812C198.514 121.748 198.19 122.792 198.19 123.944L198.226 123.908ZM246.828 111.452H245.1C244.668 111.452 244.416 111.248 244.344 110.84L244.092 108.068H234.444V116.636H243.948V119.372H234.444V128.192H244.092L244.308 125.6C244.38 125.216 244.644 125.024 245.1 125.024H246.828V131H228.324V129.488C228.324 129.104 228.504 128.876 228.864 128.804L230.916 128.408V107.852C229.764 107.636 229.08 107.492 228.864 107.42C228.504 107.348 228.324 107.12 228.324 106.736V105.224H246.828V111.452ZM255.069 115.376C256.869 113.432 258.885 112.46 261.117 112.46C263.085 112.46 264.597 113.096 265.653 114.368C266.685 115.616 267.201 117.284 267.201 119.372V128.336C268.353 128.552 269.037 128.696 269.253 128.768C269.637 128.84 269.829 129.068 269.829 129.452V131H263.997V119.408C263.997 116.48 262.725 115.016 260.181 115.016C258.381 115.016 256.725 115.868 255.213 117.572V128.372C255.309 128.372 256.005 128.516 257.301 128.804C257.661 128.876 257.841 129.104 257.841 129.488V131H249.453V129.488C249.453 129.104 249.621 128.876 249.957 128.804L252.045 128.408V115.412C250.845 115.196 250.149 115.052 249.957 114.98C249.621 114.908 249.453 114.68 249.453 114.296V112.784H253.917C254.349 112.784 254.637 113 254.781 113.432L255.069 115.412V115.376ZM278.649 106.16C278.769 106.4 278.829 106.7 278.829 107.06C278.829 107.396 278.769 107.684 278.649 107.924C278.505 108.212 278.337 108.452 278.145 108.644C277.953 108.836 277.713 109.004 277.425 109.148C277.185 109.268 276.897 109.328 276.561 109.328C276.225 109.328 275.937 109.268 275.697 109.148C275.409 109.004 275.169 108.836 274.977 108.644C274.785 108.452 274.617 108.212 274.473 107.924C274.353 107.684 274.293 107.396 274.293 107.06C274.293 106.7 274.353 106.4 274.473 106.16C274.641 105.824 274.809 105.572 274.977 105.404C275.169 105.212 275.409 105.044 275.697 104.9C275.937 104.78 276.225 104.72 276.561 104.72C276.897 104.72 277.185 104.78 277.425 104.9C277.713 105.044 277.953 105.212 278.145 105.404C278.313 105.572 278.481 105.824 278.649 106.16ZM275.301 137.156C274.701 137.42 273.969 137.552 273.105 137.552C272.337 137.552 271.593 137.432 270.873 137.192L271.017 135.464C271.065 135.224 271.257 135.104 271.593 135.104H272.313C273.249 135.104 273.909 134.888 274.293 134.456C274.701 134 274.905 133.304 274.905 132.368V115.412C274.761 115.388 274.533 115.352 274.221 115.304C273.909 115.232 273.441 115.136 272.817 115.016C272.481 114.944 272.313 114.716 272.313 114.332V112.784H278.073V132.368C278.073 134.792 277.149 136.4 275.301 137.192V137.156ZM289.514 112.496C290.834 112.496 292.034 112.712 293.114 113.144C294.17 113.576 295.094 114.2 295.886 115.016C296.63 115.784 297.206 116.768 297.614 117.968C298.022 119.144 298.226 120.44 298.226 121.856C298.226 123.272 298.022 124.568 297.614 125.744C297.206 126.944 296.63 127.928 295.886 128.696C295.094 129.512 294.17 130.136 293.114 130.568C292.034 131 290.834 131.216 289.514 131.216C288.194 131.216 286.994 131 285.914 130.568C284.858 130.136 283.934 129.512 283.142 128.696C282.422 127.952 281.834 126.968 281.378 125.744C280.994 124.712 280.802 123.416 280.802 121.856C280.802 120.296 280.994 119 281.378 117.968C281.834 116.744 282.422 115.76 283.142 115.016C283.934 114.2 284.858 113.576 285.914 113.144C286.994 112.712 288.194 112.496 289.514 112.496ZM289.514 128.768C291.362 128.768 292.706 128.168 293.546 126.968C294.434 125.72 294.878 124.028 294.878 121.892C294.878 119.756 294.434 118.064 293.546 116.816C292.706 115.616 291.362 115.016 289.514 115.016C288.578 115.016 287.786 115.16 287.138 115.448C286.514 115.736 285.962 116.192 285.482 116.816C285.026 117.44 284.69 118.16 284.474 118.976C284.234 119.936 284.114 120.92 284.114 121.928C284.114 122.888 284.234 123.848 284.474 124.808C284.69 125.624 285.026 126.344 285.482 126.968C285.89 127.52 286.442 127.952 287.138 128.264C287.906 128.6 288.698 128.768 289.514 128.768ZM319.308 114.296C319.308 114.656 319.128 114.872 318.768 114.944C318.672 114.944 318.528 114.968 318.336 115.016C318.168 115.064 317.988 115.112 317.796 115.16L316.896 115.34L307.86 136.364C307.764 136.604 307.608 136.796 307.392 136.94C307.2 137.084 306.972 137.156 306.708 137.156H304.332L307.644 129.92L301.236 115.304C300.516 115.184 299.976 115.064 299.616 114.944C299.256 114.872 299.076 114.656 299.076 114.296V112.748H307.248V114.296C307.248 114.656 307.068 114.872 306.708 114.944C306.468 115.016 305.796 115.16 304.692 115.376L308.76 124.88C308.88 125.144 308.976 125.456 309.048 125.816C309.144 126.176 309.204 126.416 309.228 126.536C309.396 125.96 309.588 125.408 309.804 124.88L313.728 115.376C313.728 115.376 313.068 115.244 311.748 114.98C311.412 114.908 311.244 114.68 311.244 114.296V112.784H318.012L319.308 112.748V114.296Z" fill="white"/>
<rect x="164" width="96" height="96" rx="48" fill="#333333"/>
<path d="M238.284 51.8363C239.38 49.98 240 48 240 45.6063C240 40.1044 235.348 34.9088 229.272 34.9088H224.713C225.328 33.3075 225.819 31.3925 225.819 29.0913C225.819 19.992 221.107 16 213.91 16C206.209 16 206.648 27.8666 204.94 29.575C202.097 32.4184 198.738 37.8809 196.345 40H184C181.791 40 180 41.7909 180 44V74C180 76.2091 181.791 78 184 78H192C193.862 78 195.426 76.7282 195.872 75.0062C201.436 75.1314 205.255 79.9987 218.097 79.9987C219 79.9987 220 80 220.875 80C230.515 80 234.873 75.0721 234.993 68.0838C236.657 65.7806 237.53 62.6935 237.16 59.71C238.392 57.4035 238.868 54.6671 238.284 51.8363ZM230.565 58.565C232.135 61.2062 230.722 64.7412 228.822 65.7612C229.785 71.8587 226.621 73.9987 222.182 73.9987H217.455C208.5 73.9987 202.701 69.2713 196 69.2713V46H197.365C200.91 46 205.863 37.1387 209.183 33.8175C212.728 30.2725 211.546 24.3638 213.91 22C219.819 22 219.819 26.1225 219.819 29.0913C219.819 33.9875 216.274 36.1813 216.274 40.9088H229.272C231.911 40.9088 233.989 43.2725 234 45.6362C234.011 47.9987 232.398 50.3625 231.216 50.3625C232.902 52.1819 233.263 56.017 230.565 58.565ZM191 70C191 71.6569 189.657 73 188 73C186.343 73 185 71.6569 185 70C185 68.3431 186.343 67 188 67C189.657 67 191 68.3431 191 70Z" fill="#00A2FF"/>
</svg>
